<svg t="1591759374670" class="icon" viewBox="0 0 1024 1024" version="1.1" xmlns="http://www.w3.org/2000/svg" p-id="6783" width="200" height="200"><path d="M326.1 518.5h-0.9c-35.3-0.2-68.4-14.3-93-39.7-23.8-24.5-36.9-56.9-36.9-91.4 0-34.4 13.1-66.9 36.9-91.4 24.7-25.4 57.7-39.5 93-39.7h0.9c35 0 67.9 13.6 92.6 38.4 12.2 12.2 21.8 26.6 28.5 42.8l-24 10c-5.4-13-13.1-24.6-22.9-34.4-19.9-19.9-46.2-30.8-74.2-30.8h-0.8c-28.3 0.2-54.8 11.5-74.6 31.8-19.1 19.6-29.5 45.6-29.5 73.2s10.5 53.6 29.5 73.2c19.8 20.3 46.3 31.6 74.6 31.8 28.3 0.2 55-10.7 75-30.8 3.1-3.1 5.9-6.3 8.2-9.4l20.7 15.7c-3 4-6.6 8.1-10.6 12-24.7 25.1-57.5 38.7-92.5 38.7z" fill="#3399ff" p-id="6784"></path><path d="M528.2 546.4c-35 0-67.9-13.6-92.6-38.4-25.1-25.1-38.7-58.4-38.4-93.8 0.3-35.4 14.5-68.5 40-93.2 51.2-49.5 133.7-48.6 183.9 2 11.5 11.6 20.6 25 27.2 39.9l2.9 6.7-4.2 6c-21 29.7-25 69-10.4 102.4l2.9 6.7-4.2 6c-4.1 5.8-8.9 11.6-14.3 17.1l-0.1 0.1c-24.9 24.8-57.8 38.5-92.7 38.5z m-0.2-236c-26.3 0-52.6 9.7-72.8 29.3-20.5 19.8-31.9 46.3-32.1 74.7-0.2 28.4 10.7 55.1 30.8 75.2 19.8 19.8 46.2 30.8 74.3 30.8 28 0 54.4-10.9 74.2-30.7 2.7-2.7 5.2-5.5 7.4-8.3-13.8-37.6-9.5-80.1 11.6-114.1-4.9-9.5-11.2-18.1-18.8-25.8-20.4-20.7-47.5-31.1-74.6-31.1z" fill="#3399ff" p-id="6785"></path><path d="M732.8 567.3c-35 0-67.9-13.6-92.6-38.4-11.6-11.6-20.9-25.2-27.5-40.3l23.8-10.5c5.3 12.1 12.8 23 22.1 32.3 19.9 19.9 46.2 30.8 74.2 30.8h0.8c28.3-0.2 54.8-11.5 74.6-31.8 19-19.6 29.5-45.6 29.5-73.2s-10.5-53.6-29.5-73.2c-19.8-20.3-46.3-31.6-74.6-31.8h-0.8c-28 0-54.4 10.9-74.2 30.8-4.4 4.4-8.3 9-11.7 13.8l-21.3-15c4.2-6 9.1-11.8 14.5-17.2 24.8-24.8 57.6-38.4 92.6-38.4h0.9c35.3 0.2 68.4 14.3 93 39.7 23.8 24.5 36.9 56.9 36.9 91.4 0 34.4-13.1 66.9-36.9 91.4-24.7 25.4-57.7 39.5-93 39.7-0.1-0.1-0.5-0.1-0.8-0.1zM402.9 718.1c-33.1 0-64.4-12.1-88.7-34.5-25.5-23.5-40.5-55.6-42.1-90.3-1.6-34.7 10.4-68.1 33.7-93.9 4.8-5.3 13-5.7 18.4-0.9 5.3 4.8 5.7 13 0.9 18.4-18.7 20.7-28.3 47.4-27 75.2 1.3 27.8 13.2 53.5 33.7 72.4 20.7 19 47.7 28.8 76 27.5 28.3-1.3 54.3-13.4 73.1-34.2 29.7-32.8 35.7-81.1 14.9-120-3.4-6.3-1-14.2 5.3-17.6 6.3-3.4 14.2-1 17.6 5.3 26 48.6 18.5 108.8-18.5 149.7-23.6 26-56 41.1-91.2 42.7-2 0.2-4.1 0.2-6.1 0.2z" fill="#3399ff" p-id="6786"></path><path d="M609 752.2c-33.6 0-67.1-12.8-92.7-38.3-11.6-11.6-20.9-25.2-27.5-40.3-2.9-6.6 0.1-14.2 6.7-17.1 6.6-2.9 14.2 0.1 17.1 6.7 5.3 12.1 12.8 23 22.1 32.3 19.8 19.8 46.2 30.8 74.3 30.8s54.5-10.9 74.3-30.8c17.9-17.8 28.7-41.5 30.5-66.7 1.8-24.9-5.3-49.6-20-69.7-4.2-5.8-3-13.9 2.8-18.2 5.8-4.2 13.9-3 18.2 2.8 18.3 25 27.2 55.9 25 86.9-2.3 31.4-15.8 60.9-38.1 83.2-25.6 25.7-59.1 38.4-92.7 38.4z" fill="#3399ff" p-id="6787"></path><path d="M469.8 942.5c-31.2 0-61-10.9-84.7-31.1-27-23-43.2-55.1-45.8-90.4-2.6-35.2 8.9-69.2 32.1-95.8 10.9-12.5 23.9-22.6 38.4-30.1 6.4-3.3 14.2-0.8 17.5 5.6 3.3 6.4 0.8 14.2-5.6 17.5-11.6 6-22 14.1-30.8 24.1-18.7 21.3-27.8 48.5-25.8 76.8 2.1 28.3 15.1 54 36.7 72.5 19.5 16.6 43.8 24.8 67.9 24.8 28.9 0 57.7-11.7 78.2-34.5 19-21.1 28.5-48.3 26.8-76.5-1.7-28.3-14.4-54.1-35.7-72.8-5.4-4.7-6-12.9-1.2-18.3 4.7-5.4 12.9-6 18.3-1.2 26.6 23.3 42.4 55.5 44.5 90.8 2.1 35.3-9.8 69.2-33.4 95.5-22.8 25.4-54.3 40.6-88.7 42.9-2.8 0.1-5.8 0.2-8.7 0.2zM726.3 330.1l-13.2-22.4c50.2-29.7 65.6-52.3 70.3-63.4-40.7-12.6-80.3-5.2-106.8 3.4-10 3.2-20.7 0-27.3-8.2-6.2-7.7-7.2-18-2.8-26.7-59.5 19.3-103.9 90.6-104.4 91.3l-22.2-13.6c0.6-1 14.8-23.9 38.5-48.5 32.6-33.8 66.1-53.5 99.6-58.6 7.3-1.2 14.4 1.9 18.6 8.1 4.2 6.2 4.4 14 0.5 20.4l-6.1 10.3c31.8-10 79-17.8 127.5-0.3 8.7 3.1 13.9 12 12.3 21.1v0.2c-6.8 36.1-55.8 69.9-84.5 86.9z m63.4-83.7zM662.1 209c-0.1 0-0.1 0 0 0-0.1 0-0.1 0 0 0z m-7.3-10.4zM499 311.8c-6.8 0-12.5-5.3-13-12.2 0-0.4-2.7-40-10.7-81.7-2.5-12.9-5.1-23.9-7.7-33.4-4.3 1.5-8.4 2.7-12.1 3.6-16.7 4.1-34.2 1-48.1-8.7-9.4-6.5-16.3-17.4-18.3-29.2-1.9-11.3 0.6-22.1 7.4-31.5l0.2-0.3c2.5-3.3 5.4-6.1 8.6-8.3 18.6-13 33.8-10.3 43.2-5.8 13.2 6.3 24.4 20.6 33.9 43.2 15.1-11 28.9-28.6 35.9-56.5 1.8-7 8.8-11.2 15.8-9.4 7 1.8 11.2 8.8 9.4 15.8-9.9 39.4-31.3 62.2-52.3 75.4 3.5 11.9 6.7 25.3 9.5 40.2 8.4 43.2 11 83 11.1 84.7 0.5 7.2-5 13.3-12.1 13.8-0.1 0.3-0.4 0.3-0.7 0.3z m-81.5-177.6c-2.5 3.6-3.4 7.5-2.7 11.7 0.9 5.5 4.4 10.1 7.5 12.2 7.7 5.4 17.5 7.1 27 4.8 3.3-0.8 6.7-1.8 10.1-3.1-9.2-23-17.7-29.9-22-31.9-1.9-0.9-7.1-3.4-17.1 3.7l-0.1 0.1c-1 0.6-1.8 1.5-2.7 2.5z" fill="#3399ff" p-id="6788"></path></svg>